HIERARCHY
ROOT joint_Root
{
	OFFSET 0.0 0.0 0.0
	CHANNELS 6 Xposition Yposition Zposition Zrotation Xrotation Yrotation 
	JOINT Hips
	{
		OFFSET -17.1583 93.1646 452.98
		CHANNELS 6 Xposition Yposition Zposition Zrotation Xrotation Yrotation 
		JOINT Spine
		{
			OFFSET 15.7357 0.0 0.0
			CHANNELS 6 Xposition Yposition Zposition Zrotation Xrotation Yrotation 
			JOINT Chest
			{
				OFFSET 8.98455 -0.406207 0.0
				CHANNELS 6 Xposition Yposition Zposition Zrotation Xrotation Yrotation 
				JOINT Neck
				{
					OFFSET 16.3773 0.0 0.0
					CHANNELS 6 Xposition Yposition Zposition Zrotation Xrotation Yrotation 
					JOINT Head
					{
						OFFSET 6.45672 0.0 0.0
						CHANNELS 6 Xposition Yposition Zposition Zrotation Xrotation Yrotation 
						End Site
						{
							OFFSET 0.0 0.0 0.0
						}
					}
				}
				JOINT Shoulder_L
				{
					OFFSET 12.9942 -0.242716 4.98039
					CHANNELS 6 Xposition Yposition Zposition Zrotation Xrotation Yrotation 
					JOINT UpperArm_L
					{
						OFFSET 5.34809 0.0 0.0
						CHANNELS 6 Xposition Yposition Zposition Zrotation Xrotation Yrotation 
						JOINT LowerArm_L
						{
							OFFSET 24.3286 1.87007e-05 0.0
							CHANNELS 6 Xposition Yposition Zposition Zrotation Xrotation Yrotation 
							JOINT Hand_L
							{
								OFFSET 22.2916 0.0 0.0
								CHANNELS 6 Xposition Yposition Zposition Zrotation Xrotation Yrotation 
								End Site
								{
									OFFSET 0.0 0.0 0.0
								}
							}
						}
					}
				}
				JOINT Shoulder_R
				{
					OFFSET 12.9945 -0.242716 -4.98039
					CHANNELS 6 Xposition Yposition Zposition Zrotation Xrotation Yrotation 
					JOINT UpperArm_R
					{
						OFFSET -5.34813 0.0 0.0
						CHANNELS 6 Xposition Yposition Zposition Zrotation Xrotation Yrotation 
						JOINT LowerArm_R
						{
							OFFSET -24.3289 0.000322201 0.0
							CHANNELS 6 Xposition Yposition Zposition Zrotation Xrotation Yrotation 
							JOINT Hand_R
							{
								OFFSET -22.2915 -0.000108084 0.0
								CHANNELS 6 Xposition Yposition Zposition Zrotation Xrotation Yrotation 
								End Site
								{
									OFFSET 0.0 0.0 0.0
								}
							}
						}
					}
				}
			}
		}
		JOINT UpperLeg_L
		{
			OFFSET -2.19248 -6.46944 0.0
			CHANNELS 6 Xposition Yposition Zposition Zrotation Xrotation Yrotation 
			JOINT LowerLeg_L
			{
				OFFSET 39.0811 0.0 -1.23785e-05
				CHANNELS 6 Xposition Yposition Zposition Zrotation Xrotation Yrotation 
				JOINT Foot_L
				{
					OFFSET 40.9854 0.0 -1.26872e-05
					CHANNELS 6 Xposition Yposition Zposition Zrotation Xrotation Yrotation 
					JOINT Toes_L
					{
						OFFSET 11.7543 0.0 0.0
						CHANNELS 6 Xposition Yposition Zposition Zrotation Xrotation Yrotation 
						End Site
						{
							OFFSET 0.0 0.0 0.0
						}
					}
				}
			}
		}
		JOINT UpperLeg_R
		{
			OFFSET -2.19251 6.46944 0.0
			CHANNELS 6 Xposition Yposition Zposition Zrotation Xrotation Yrotation 
			JOINT LowerLeg_R
			{
				OFFSET -39.0811 -0.00228153 -0.0401928
				CHANNELS 6 Xposition Yposition Zposition Zrotation Xrotation Yrotation 
				JOINT Foot_R
				{
					OFFSET -40.9854 0.0 0.0
					CHANNELS 6 Xposition Yposition Zposition Zrotation Xrotation Yrotation 
					JOINT Toes_R
					{
						OFFSET -11.7543 0.0 0.0
						CHANNELS 6 Xposition Yposition Zposition Zrotation Xrotation Yrotation 
						End Site
						{
							OFFSET 0.0 0.0 0.0
						}
					}
				}
			}
		}
	}
}
MOTION
Frames:	4
Frame Time:	0.0333333
0.000000 0.000000 0.000000 0.000000 0.000000 -0.000000 0.964460 93.414800 -1.400120 87.790800 -1.740050 -1.464080 15.735700 0.000005 -0.000001 85.776000 88.603300 -84.423800 8.984550 -0.406207 -0.000000 -4.974640 -0.355781 2.691190 16.377300 -0.000001 -0.000001 4.088990 2.808190 -2.250610 6.456720 -0.000001 -0.000000 5.752270 2.805530 0.624181 12.994200 -0.242716 4.980390 -92.510400 7.690000 -71.859300 5.348090 -0.000007 -0.000001 -73.373900 31.277700 1.767820 24.328600 0.000019 0.000005 12.692200 27.739500 -25.820700 22.291600 -0.000001 0.000005 -3.305860 4.958050 8.199010 12.994500 -0.242716 -4.980390 88.510000 4.855040 -72.915800 -5.348130 -0.000001 -0.000004 -72.344100 27.701900 0.203484 -24.328900 0.000322 -0.000009 2.809810 6.330840 -24.001500 -22.291500 -0.000108 -0.000004 -6.486080 5.134090 4.321390 -2.192480 -6.469440 -0.000000 -178.748000 -3.355710 -3.287210 39.081100 -0.000007 -0.000012 0.113023 -0.422420 14.979400 40.985400 -0.000006 -0.000013 3.582430 8.846090 -68.965100 11.754300 -0.000000 0.000003 0.000374 0.161071 -10.044200 -2.192510 6.469440 -0.000001 -177.203000 4.663610 179.885000 -39.081100 -0.002282 -0.040193 0.003140 0.001132 9.955870 -40.985400 0.000008 0.000006 -4.855380 3.377920 -66.243900 -11.754300 -0.000006 -0.000006 -0.010542 0.275310 -5.387130
0.000000 0.000000 0.000000 0.000000 0.000000 -0.000000 0.891946 93.425700 -1.483390 87.802200 -1.726030 -1.525900 15.735700 0.000005 -0.000001 84.296800 88.598800 -82.929600 8.984550 -0.406207 -0.000000 -4.970920 -0.430069 2.717820 16.377300 -0.000001 -0.000001 3.876120 2.790940 -2.189080 6.456720 -0.000001 -0.000000 5.536400 2.852810 0.605118 12.994200 -0.242716 4.980390 -92.490700 7.648640 -71.902100 5.348090 -0.000007 -0.000001 -73.443500 31.344600 1.823380 24.328600 0.000019 0.000005 12.673000 27.708600 -25.808500 22.291600 -0.000001 0.000005 -3.267030 4.959820 8.162510 12.994500 -0.242716 -4.980390 88.524800 4.792380 -72.868200 -5.348130 -0.000001 -0.000004 -71.910600 26.028900 0.228096 -24.328900 0.000322 -0.000009 3.005780 6.371490 -25.329700 -22.291500 -0.000108 -0.000004 -6.963030 5.124870 4.537830 -2.192480 -6.469440 -0.000000 -178.709000 -3.252810 -3.407170 39.081100 -0.000007 -0.000012 0.112328 -0.420188 14.966900 40.985400 -0.000006 -0.000013 3.511770 8.820010 -68.899900 11.754300 -0.000000 0.000003 0.000273 0.162904 -9.969760 -2.192510 6.469440 -0.000001 -177.145000 4.746690 179.797000 -39.081100 -0.002282 -0.040193 0.003247 0.000530 9.897530 -40.985400 0.000008 0.000006 -4.774730 3.393550 -66.160300 -11.754300 -0.000006 -0.000006 -0.010590 0.275665 -5.372640
0.000000 0.000000 0.000000 0.000000 0.000000 -0.000000 0.826691 93.448200 -1.564860 87.798700 -1.737290 -1.580920 15.735700 0.000005 -0.000001 83.190200 88.588100 -81.802800 8.984550 -0.406207 -0.000000 -4.954730 -0.488407 2.755890 16.377300 -0.000001 -0.000001 3.657070 2.803060 -2.118030 6.456720 -0.000001 -0.000000 5.262030 2.914600 0.663322 12.994200 -0.242716 4.980390 -92.464700 7.577100 -71.921900 5.348090 -0.000007 -0.000001 -73.553000 31.276400 1.859390 24.328600 0.000019 0.000005 12.655000 27.657000 -25.814100 22.291600 -0.000001 0.000005 -3.328660 4.958790 8.183710 12.994500 -0.242716 -4.980390 88.545700 4.706710 -72.807900 -5.348130 -0.000001 -0.000004 -71.386100 23.810300 0.387561 -24.328900 0.000322 -0.000009 3.250380 6.299720 -27.371600 -22.291500 -0.000108 -0.000004 -7.190470 5.113120 4.811320 -2.192480 -6.469440 -0.000000 -178.664000 -3.304600 -3.440790 39.081100 -0.000007 -0.000012 0.110179 -0.416180 14.828400 40.985400 -0.000006 -0.000013 3.451510 8.846760 -68.818300 11.754300 -0.000000 0.000003 0.000296 0.162490 -9.986540 -2.192510 6.469440 -0.000001 -177.100000 4.657340 179.777000 -39.081100 -0.002282 -0.040193 0.003022 0.001858 9.702360 -40.985400 0.000008 0.000006 -4.896250 3.353350 -65.979300 -11.754300 -0.000006 -0.000006 -0.010581 0.275595 -5.375480
0.000000 0.000000 0.000000 0.000000 0.000000 -0.000000 0.755072 93.464600 -1.651760 87.759500 -1.713040 -1.737660 15.735700 0.000005 -0.000001 81.573500 88.603900 -80.149400 8.984550 -0.406207 -0.000000 -4.995440 -0.567243 2.825770 16.377300 -0.000001 -0.000001 3.387540 2.766730 -1.980140 6.456720 -0.000001 -0.000000 4.988850 2.966720 0.721728 12.994200 -0.242716 4.980390 -92.441500 7.524170 -71.963900 5.348090 -0.000007 -0.000001 -73.635900 31.288400 1.877780 24.328600 0.000019 0.000005 12.673600 27.676700 -25.833500 22.291600 -0.000001 0.000005 -3.311690 4.959590 8.167190 12.994500 -0.242716 -4.980390 88.578100 4.588340 -72.761700 -5.348130 -0.000001 -0.000004 -70.874200 20.685600 0.787009 -24.328900 0.000322 -0.000009 3.522970 6.038870 -30.343800 -22.291500 -0.000108 -0.000004 -7.165060 5.094400 5.242010 -2.192480 -6.469440 -0.000000 -178.575000 -3.321720 -3.642890 39.081100 -0.000007 -0.000012 0.108668 -0.411603 14.789400 40.985400 -0.000006 -0.000013 3.388870 8.885000 -68.691900 11.754300 -0.000000 0.000003 0.000496 0.158807 -10.136100 -2.192510 6.469440 -0.000001 -176.985000 4.676290 179.602000 -39.081100 -0.002282 -0.040193 0.003253 0.000511 9.605750 -40.985400 0.000008 0.000006 -4.902620 3.296370 -65.796100 -11.754300 -0.000006 -0.000006 -0.010220 0.272939 -5.484140
